M48
; DRILL file {KiCad (7.0.0)} date Tue Sep 26 23:36:23 2023
; FORMAT={-:-/ absolute / inch / decimal}
; #@! TF.CreationDate,2023-09-26T23:36:23+07:00
; #@! TF.GenerationSoftware,Kicad,Pcbnew,(7.0.0)
; #@! TF.FileFunction,Plated,1,2,PTH
FMAT,2
INCH
; #@! TA.AperFunction,Plated,PTH,ViaDrill
T1C0.0118
; #@! TA.AperFunction,Plated,PTH,ComponentDrill
T2C0.0118
; #@! TA.AperFunction,Plated,PTH,ComponentDrill
T3C0.0236
; #@! TA.AperFunction,Plated,PTH,ComponentDrill
T4C0.0256
; #@! TA.AperFunction,Plated,PTH,ComponentDrill
T5C0.0295
%
G90
G05
T1
X3.939Y-4.7844
X3.939Y-4.9026
X3.939Y-5.0207
X4.0571Y-4.312
X4.0571Y-4.7844
X4.0571Y-4.9026
X4.0571Y-5.0207
X4.0571Y-5.4931
X4.1752Y-4.1939
X4.1752Y-4.312
X4.1752Y-4.4301
X4.1752Y-4.5482
X4.1752Y-4.6663
X4.1752Y-4.7844
X4.1752Y-4.9026
X4.1752Y-5.0207
X4.1752Y-5.1388
X4.1752Y-5.2569
X4.1752Y-5.375
X4.1752Y-5.4931
X4.1752Y-5.6112
X4.2933Y-4.5482
X4.2933Y-4.6663
X4.2933Y-4.7844
X4.2933Y-4.9026
X4.2933Y-5.0207
X4.2933Y-5.1388
X4.2933Y-5.2569
X4.2933Y-5.375
X4.2933Y-5.4931
X4.2933Y-5.6112
X4.372Y-1.8839
X4.3917Y-2.4154
X4.4114Y-4.6663
X4.4114Y-4.7844
X4.4114Y-4.9026
X4.4114Y-5.4931
X4.4114Y-5.6112
X4.4606Y-2.1988
X4.5197Y-2.1988
X4.5295Y-4.6663
X4.5295Y-4.7844
X4.5295Y-4.9026
X4.5689Y-1.8839
X4.5787Y-2.1988
X4.5787Y-5.2992
X4.5886Y-2.4154
X4.6083Y-4.0984
X4.628Y-5.122
X4.628Y-5.2992
X4.6378Y-2.1988
X4.6476Y-4.6663
X4.6476Y-4.7844
X4.6476Y-4.9026
X4.6575Y-4.3346
X4.6772Y-5.2992
X4.7165Y-5.122
X4.7264Y-4.3346
X4.7362Y-5.3583
X4.7657Y-1.8839
X4.7657Y-4.5482
X4.7657Y-4.6663
X4.7657Y-4.7844
X4.7657Y-4.9026
X4.7854Y-2.4154
X4.7953Y-4.3346
X4.8051Y-5.122
X4.8445Y-4.0984
X4.8445Y-5.5059
X4.874Y-5.2697
X4.8839Y-4.6663
X4.9223Y-5.5059
X4.9626Y-1.8839
X4.9823Y-2.4154
X4.9921Y-4.5413
X5.061Y-4.8366
X5.0906Y-4.7776
X5.1102Y-4.0197
X5.1201Y-4.7382
X5.1496Y-4.7579
X5.1594Y-1.8839
X5.1693Y-5.2205
X5.2087Y-3.9213
X5.2087Y-4.4921
X5.2579Y-2.1988
X5.2579Y-4.6594
X5.2677Y-4.1378
X5.2677Y-4.1969
X5.2677Y-5.0433
X5.2776Y-4.689
X5.3169Y-2.1988
X5.3268Y-5.0433
X5.3563Y-1.8839
X5.3563Y-3.8425
X5.376Y-2.1988
X5.376Y-4.8957
X5.3858Y-5.1417
X5.4252Y-3.7244
X5.435Y-2.1988
X5.4547Y-4.5217
X5.4646Y-3.8425
X5.4744Y-4.4429
X5.5039Y-4.0394
X5.5138Y-4.8858
X5.5138Y-5.0039
X5.5335Y-4.2559
X5.5374Y-4.1516
X5.5433Y-4.8661
X5.5433Y-4.9744
X5.5531Y-1.8839
X5.563Y-4.0787
X5.563Y-4.8268
X5.5728Y-4.9449
X5.5728Y-5.3189
X5.5827Y-4.7972
X5.6024Y-4.8268
X5.6024Y-4.9154
X5.6614Y-2.7008
X5.6713Y-4.4134
X5.6713Y-4.748
X5.6811Y-4.8858
X5.6811Y-5.0531
X5.7008Y-4.3248
X5.7008Y-4.8268
X5.7205Y-2.7008
X5.7205Y-4.4724
X5.7402Y-4.3642
X5.75Y-1.8839
X5.7598Y-4.1181
X5.7795Y-2.7008
X5.7992Y-4.561
X5.8189Y-5.0531
X5.8386Y-2.7008
X5.9065Y-4.9941
X5.9065Y-5.0531
X5.9272Y-5.3189
X5.9469Y-1.8839
X5.9469Y-2.4222
X5.9764Y-4.9941
X6.0049Y-4.2077
X6.0157Y-4.0098
X6.0157Y-4.1673
X6.0256Y-5.2598
X6.065Y-2.1988
X6.0748Y-3.7244
X6.0748Y-5.0728
X6.124Y-2.1988
X6.1437Y-1.8839
X6.1831Y-2.1988
X6.1831Y-4.5482
X6.2224Y-5.2106
X6.2224Y-5.5945
X6.2421Y-2.1988
X6.2815Y-3.9213
X6.2815Y-4.8169
X6.3012Y-4.312
X6.3406Y-1.8839
X6.4193Y-4.1939
X6.4193Y-4.312
X6.503Y-4.5659
X6.5079Y-2.435
X6.5374Y-4.7844
X6.5374Y-4.9026
X6.5374Y-1.8839
X6.5472Y-5.2992
X6.5965Y-5.122
X6.5965Y-5.2992
X6.6457Y-5.2992
X6.6555Y-4.7844
X6.6555Y-4.9026
X6.685Y-5.122
X6.7047Y-2.435
X6.7047Y-5.3583
X6.7343Y-1.8839
X6.7736Y-4.9026
X6.7736Y-5.122
X6.813Y-5.5059
X6.8425Y-5.2697
X6.8622Y-2.1988
X6.8622Y-4.6791
X6.8907Y-5.5059
X6.8917Y-4.9026
X6.9016Y-2.435
X6.9213Y-2.1988
X6.9311Y-1.8839
X6.9803Y-2.1988
X7.0098Y-4.9026
X7.0394Y-2.1988
X7.0984Y-2.435
X7.128Y-1.8839
X7.128Y-4.9026
X7.128Y-5.1388
X7.128Y-5.375
X7.128Y-5.4931
X7.128Y-5.6112
X7.2461Y-5.375
X7.2461Y-5.4931
X7.2461Y-5.6112
X7.3642Y-4.7844
X7.3642Y-4.9026
X7.3642Y-5.1388
X7.3642Y-5.4931
X7.3937Y-4.4724
X7.6004Y-4.7844
X7.6004Y-4.9026
X7.6004Y-5.0207
T2
X7.0846Y-4.4606
X7.0846Y-4.5079
X7.0846Y-4.5591
X7.0846Y-4.6024
X7.1319Y-4.4606
X7.1319Y-4.5079
X7.1319Y-4.5591
X7.1319Y-4.6024
T4
X5.376Y-3.3898
X5.426Y-3.3898
X5.476Y-3.3898
X5.526Y-3.3898
X5.576Y-3.3898
X5.626Y-3.3898
X5.676Y-3.3898
X5.726Y-3.3898
X5.776Y-3.3898
X5.826Y-3.3898
X5.876Y-3.3898
X5.926Y-3.3898
X5.976Y-3.3898
X6.026Y-3.3898
X6.076Y-3.3898
X6.126Y-3.3898
T5
X4.3327Y-4.1475
X4.4114Y-4.1475
X4.5689Y-5.5827
X4.6476Y-5.5827
X4.7264Y-5.5827
X4.8051Y-5.5827
X4.8839Y-5.5827
X4.9626Y-5.5827
X6.5374Y-5.5827
X6.6161Y-5.5827
X6.6949Y-5.5827
X6.7736Y-5.5827
X6.8524Y-5.5827
X6.9311Y-5.5827
X7.0886Y-4.1476
X7.1673Y-4.1476
T3
G00X5.5799Y-5.4489
M15
G01X5.5799Y-5.4922
M16
G05
G00X5.5799Y-5.6233
M15
G01X5.5799Y-5.6469
M16
G05
G00X5.9201Y-5.4489
M15
G01X5.9201Y-5.4922
M16
G05
G00X5.9201Y-5.6233
M15
G01X5.9201Y-5.6469
M16
G05
T0
M30
