%TF.GenerationSoftware,KiCad,Pcbnew,(7.0.0)*%
%TF.CreationDate,2023-09-26T23:36:23+07:00*%
%TF.ProjectId,Line Tracer F405RGT,4c696e65-2054-4726-9163-657220463430,rev?*%
%TF.SameCoordinates,Original*%
%TF.FileFunction,Legend,Bot*%
%TF.FilePolarity,Positive*%
%FSLAX46Y46*%
G04 Gerber Fmt 4.6, Leading zero omitted, Abs format (unit mm)*
G04 Created by KiCad (PCBNEW (7.0.0)) date 2023-09-26 23:36:23*
%MOMM*%
%LPD*%
G01*
G04 APERTURE LIST*
G04 Aperture macros list*
%AMRoundRect*
0 Rectangle with rounded corners*
0 $1 Rounding radius*
0 $2 $3 $4 $5 $6 $7 $8 $9 X,Y pos of 4 corners*
0 Add a 4 corners polygon primitive as box body*
4,1,4,$2,$3,$4,$5,$6,$7,$8,$9,$2,$3,0*
0 Add four circle primitives for the rounded corners*
1,1,$1+$1,$2,$3*
1,1,$1+$1,$4,$5*
1,1,$1+$1,$6,$7*
1,1,$1+$1,$8,$9*
0 Add four rect primitives between the rounded corners*
20,1,$1+$1,$2,$3,$4,$5,0*
20,1,$1+$1,$4,$5,$6,$7,0*
20,1,$1+$1,$6,$7,$8,$9,0*
20,1,$1+$1,$8,$9,$2,$3,0*%
%AMFreePoly0*
4,1,19,0.550000,-0.750000,0.000000,-0.750000,0.000000,-0.744911,-0.071157,-0.744911,-0.207708,-0.704816,-0.327430,-0.627875,-0.420627,-0.520320,-0.479746,-0.390866,-0.500000,-0.250000,-0.500000,0.250000,-0.479746,0.390866,-0.420627,0.520320,-0.327430,0.627875,-0.207708,0.704816,-0.071157,0.744911,0.000000,0.744911,0.000000,0.750000,0.550000,0.750000,0.550000,-0.750000,0.550000,-0.750000,
$1*%
%AMFreePoly1*
4,1,19,0.000000,0.744911,0.071157,0.744911,0.207708,0.704816,0.327430,0.627875,0.420627,0.520320,0.479746,0.390866,0.500000,0.250000,0.500000,-0.250000,0.479746,-0.390866,0.420627,-0.520320,0.327430,-0.627875,0.207708,-0.704816,0.071157,-0.744911,0.000000,-0.744911,0.000000,-0.750000,-0.550000,-0.750000,-0.550000,0.750000,0.000000,0.750000,0.000000,0.744911,0.000000,0.744911,
$1*%
G04 Aperture macros list end*
%ADD10C,0.110000*%
%ADD11C,0.120000*%
%ADD12C,0.150000*%
%ADD13RoundRect,0.250000X-0.350000X-0.625000X0.350000X-0.625000X0.350000X0.625000X-0.350000X0.625000X0*%
%ADD14O,1.200000X1.750000*%
%ADD15C,2.100000*%
%ADD16O,1.000000X1.000000*%
%ADD17C,5.200000*%
%ADD18C,0.650000*%
%ADD19O,1.000000X2.100000*%
%ADD20O,1.000000X1.600000*%
%ADD21RoundRect,0.197500X0.197500X0.632500X-0.197500X0.632500X-0.197500X-0.632500X0.197500X-0.632500X0*%
%ADD22RoundRect,0.197500X-0.197500X-0.632500X0.197500X-0.632500X0.197500X0.632500X-0.197500X0.632500X0*%
%ADD23FreePoly0,270.000000*%
%ADD24R,1.500000X1.000000*%
%ADD25FreePoly1,270.000000*%
%ADD26RoundRect,0.250000X-0.250000X-0.475000X0.250000X-0.475000X0.250000X0.475000X-0.250000X0.475000X0*%
%ADD27R,1.000000X0.800000*%
%ADD28C,0.900000*%
%ADD29R,0.700000X1.500000*%
G04 APERTURE END LIST*
D10*
X122159500Y-139683333D02*
X122159500Y-139450000D01*
X121792833Y-139350000D02*
X121792833Y-139683333D01*
X121792833Y-139683333D02*
X122492833Y-139683333D01*
X122492833Y-139683333D02*
X122492833Y-139350000D01*
X121792833Y-139050000D02*
X122492833Y-139050000D01*
X122492833Y-139050000D02*
X121792833Y-138650000D01*
X121792833Y-138650000D02*
X122492833Y-138650000D01*
X121859500Y-137916667D02*
X121826166Y-137950000D01*
X121826166Y-137950000D02*
X121792833Y-138050000D01*
X121792833Y-138050000D02*
X121792833Y-138116667D01*
X121792833Y-138116667D02*
X121826166Y-138216667D01*
X121826166Y-138216667D02*
X121892833Y-138283334D01*
X121892833Y-138283334D02*
X121959500Y-138316667D01*
X121959500Y-138316667D02*
X122092833Y-138350000D01*
X122092833Y-138350000D02*
X122192833Y-138350000D01*
X122192833Y-138350000D02*
X122326166Y-138316667D01*
X122326166Y-138316667D02*
X122392833Y-138283334D01*
X122392833Y-138283334D02*
X122459500Y-138216667D01*
X122459500Y-138216667D02*
X122492833Y-138116667D01*
X122492833Y-138116667D02*
X122492833Y-138050000D01*
X122492833Y-138050000D02*
X122459500Y-137950000D01*
X122459500Y-137950000D02*
X122426166Y-137916667D01*
X122492833Y-137483334D02*
X122492833Y-137350000D01*
X122492833Y-137350000D02*
X122459500Y-137283334D01*
X122459500Y-137283334D02*
X122392833Y-137216667D01*
X122392833Y-137216667D02*
X122259500Y-137183334D01*
X122259500Y-137183334D02*
X122026166Y-137183334D01*
X122026166Y-137183334D02*
X121892833Y-137216667D01*
X121892833Y-137216667D02*
X121826166Y-137283334D01*
X121826166Y-137283334D02*
X121792833Y-137350000D01*
X121792833Y-137350000D02*
X121792833Y-137483334D01*
X121792833Y-137483334D02*
X121826166Y-137550000D01*
X121826166Y-137550000D02*
X121892833Y-137616667D01*
X121892833Y-137616667D02*
X122026166Y-137650000D01*
X122026166Y-137650000D02*
X122259500Y-137650000D01*
X122259500Y-137650000D02*
X122392833Y-137616667D01*
X122392833Y-137616667D02*
X122459500Y-137550000D01*
X122459500Y-137550000D02*
X122492833Y-137483334D01*
X121792833Y-136883334D02*
X122492833Y-136883334D01*
X122492833Y-136883334D02*
X122492833Y-136716667D01*
X122492833Y-136716667D02*
X122459500Y-136616667D01*
X122459500Y-136616667D02*
X122392833Y-136550001D01*
X122392833Y-136550001D02*
X122326166Y-136516667D01*
X122326166Y-136516667D02*
X122192833Y-136483334D01*
X122192833Y-136483334D02*
X122092833Y-136483334D01*
X122092833Y-136483334D02*
X121959500Y-136516667D01*
X121959500Y-136516667D02*
X121892833Y-136550001D01*
X121892833Y-136550001D02*
X121826166Y-136616667D01*
X121826166Y-136616667D02*
X121792833Y-136716667D01*
X121792833Y-136716667D02*
X121792833Y-136883334D01*
X122159500Y-136183334D02*
X122159500Y-135950001D01*
X121792833Y-135850001D02*
X121792833Y-136183334D01*
X121792833Y-136183334D02*
X122492833Y-136183334D01*
X122492833Y-136183334D02*
X122492833Y-135850001D01*
X121792833Y-135150001D02*
X122126166Y-135383334D01*
X121792833Y-135550001D02*
X122492833Y-135550001D01*
X122492833Y-135550001D02*
X122492833Y-135283334D01*
X122492833Y-135283334D02*
X122459500Y-135216668D01*
X122459500Y-135216668D02*
X122426166Y-135183334D01*
X122426166Y-135183334D02*
X122359500Y-135150001D01*
X122359500Y-135150001D02*
X122259500Y-135150001D01*
X122259500Y-135150001D02*
X122192833Y-135183334D01*
X122192833Y-135183334D02*
X122159500Y-135216668D01*
X122159500Y-135216668D02*
X122126166Y-135283334D01*
X122126166Y-135283334D02*
X122126166Y-135550001D01*
X121859500Y-134850001D02*
X121826166Y-134816668D01*
X121826166Y-134816668D02*
X121792833Y-134850001D01*
X121792833Y-134850001D02*
X121826166Y-134883334D01*
X121826166Y-134883334D02*
X121859500Y-134850001D01*
X121859500Y-134850001D02*
X121792833Y-134850001D01*
X122426166Y-134550001D02*
X122459500Y-134516668D01*
X122459500Y-134516668D02*
X122492833Y-134450001D01*
X122492833Y-134450001D02*
X122492833Y-134283335D01*
X122492833Y-134283335D02*
X122459500Y-134216668D01*
X122459500Y-134216668D02*
X122426166Y-134183335D01*
X122426166Y-134183335D02*
X122359500Y-134150001D01*
X122359500Y-134150001D02*
X122292833Y-134150001D01*
X122292833Y-134150001D02*
X122192833Y-134183335D01*
X122192833Y-134183335D02*
X121792833Y-134583335D01*
X121792833Y-134583335D02*
X121792833Y-134150001D01*
D11*
X142197366Y-113359867D02*
X142236071Y-113475981D01*
X142236071Y-113475981D02*
X142274776Y-113514686D01*
X142274776Y-113514686D02*
X142352185Y-113553390D01*
X142352185Y-113553390D02*
X142468300Y-113553390D01*
X142468300Y-113553390D02*
X142545709Y-113514686D01*
X142545709Y-113514686D02*
X142584414Y-113475981D01*
X142584414Y-113475981D02*
X142623119Y-113398571D01*
X142623119Y-113398571D02*
X142623119Y-113088933D01*
X142623119Y-113088933D02*
X141810319Y-113088933D01*
X141810319Y-113088933D02*
X141810319Y-113359867D01*
X141810319Y-113359867D02*
X141849024Y-113437276D01*
X141849024Y-113437276D02*
X141887728Y-113475981D01*
X141887728Y-113475981D02*
X141965138Y-113514686D01*
X141965138Y-113514686D02*
X142042547Y-113514686D01*
X142042547Y-113514686D02*
X142119957Y-113475981D01*
X142119957Y-113475981D02*
X142158662Y-113437276D01*
X142158662Y-113437276D02*
X142197366Y-113359867D01*
X142197366Y-113359867D02*
X142197366Y-113088933D01*
X141810319Y-114056552D02*
X141810319Y-114211371D01*
X141810319Y-114211371D02*
X141849024Y-114288781D01*
X141849024Y-114288781D02*
X141926433Y-114366190D01*
X141926433Y-114366190D02*
X142081252Y-114404895D01*
X142081252Y-114404895D02*
X142352185Y-114404895D01*
X142352185Y-114404895D02*
X142507004Y-114366190D01*
X142507004Y-114366190D02*
X142584414Y-114288781D01*
X142584414Y-114288781D02*
X142623119Y-114211371D01*
X142623119Y-114211371D02*
X142623119Y-114056552D01*
X142623119Y-114056552D02*
X142584414Y-113979143D01*
X142584414Y-113979143D02*
X142507004Y-113901733D01*
X142507004Y-113901733D02*
X142352185Y-113863029D01*
X142352185Y-113863029D02*
X142081252Y-113863029D01*
X142081252Y-113863029D02*
X141926433Y-113901733D01*
X141926433Y-113901733D02*
X141849024Y-113979143D01*
X141849024Y-113979143D02*
X141810319Y-114056552D01*
X141810319Y-114908057D02*
X141810319Y-115062876D01*
X141810319Y-115062876D02*
X141849024Y-115140286D01*
X141849024Y-115140286D02*
X141926433Y-115217695D01*
X141926433Y-115217695D02*
X142081252Y-115256400D01*
X142081252Y-115256400D02*
X142352185Y-115256400D01*
X142352185Y-115256400D02*
X142507004Y-115217695D01*
X142507004Y-115217695D02*
X142584414Y-115140286D01*
X142584414Y-115140286D02*
X142623119Y-115062876D01*
X142623119Y-115062876D02*
X142623119Y-114908057D01*
X142623119Y-114908057D02*
X142584414Y-114830648D01*
X142584414Y-114830648D02*
X142507004Y-114753238D01*
X142507004Y-114753238D02*
X142352185Y-114714534D01*
X142352185Y-114714534D02*
X142081252Y-114714534D01*
X142081252Y-114714534D02*
X141926433Y-114753238D01*
X141926433Y-114753238D02*
X141849024Y-114830648D01*
X141849024Y-114830648D02*
X141810319Y-114908057D01*
X141810319Y-115488629D02*
X141810319Y-115953086D01*
X142623119Y-115720858D02*
X141810319Y-115720858D01*
X141810319Y-116378838D02*
X141810319Y-116456248D01*
X141810319Y-116456248D02*
X141849024Y-116533657D01*
X141849024Y-116533657D02*
X141887728Y-116572362D01*
X141887728Y-116572362D02*
X141965138Y-116611067D01*
X141965138Y-116611067D02*
X142119957Y-116649772D01*
X142119957Y-116649772D02*
X142313481Y-116649772D01*
X142313481Y-116649772D02*
X142468300Y-116611067D01*
X142468300Y-116611067D02*
X142545709Y-116572362D01*
X142545709Y-116572362D02*
X142584414Y-116533657D01*
X142584414Y-116533657D02*
X142623119Y-116456248D01*
X142623119Y-116456248D02*
X142623119Y-116378838D01*
X142623119Y-116378838D02*
X142584414Y-116301429D01*
X142584414Y-116301429D02*
X142545709Y-116262724D01*
X142545709Y-116262724D02*
X142468300Y-116224019D01*
X142468300Y-116224019D02*
X142313481Y-116185315D01*
X142313481Y-116185315D02*
X142119957Y-116185315D01*
X142119957Y-116185315D02*
X141965138Y-116224019D01*
X141965138Y-116224019D02*
X141887728Y-116262724D01*
X141887728Y-116262724D02*
X141849024Y-116301429D01*
X141849024Y-116301429D02*
X141810319Y-116378838D01*
D10*
X172159500Y-139683333D02*
X172159500Y-139450000D01*
X171792833Y-139350000D02*
X171792833Y-139683333D01*
X171792833Y-139683333D02*
X172492833Y-139683333D01*
X172492833Y-139683333D02*
X172492833Y-139350000D01*
X171792833Y-139050000D02*
X172492833Y-139050000D01*
X172492833Y-139050000D02*
X171792833Y-138650000D01*
X171792833Y-138650000D02*
X172492833Y-138650000D01*
X171859500Y-137916667D02*
X171826166Y-137950000D01*
X171826166Y-137950000D02*
X171792833Y-138050000D01*
X171792833Y-138050000D02*
X171792833Y-138116667D01*
X171792833Y-138116667D02*
X171826166Y-138216667D01*
X171826166Y-138216667D02*
X171892833Y-138283334D01*
X171892833Y-138283334D02*
X171959500Y-138316667D01*
X171959500Y-138316667D02*
X172092833Y-138350000D01*
X172092833Y-138350000D02*
X172192833Y-138350000D01*
X172192833Y-138350000D02*
X172326166Y-138316667D01*
X172326166Y-138316667D02*
X172392833Y-138283334D01*
X172392833Y-138283334D02*
X172459500Y-138216667D01*
X172459500Y-138216667D02*
X172492833Y-138116667D01*
X172492833Y-138116667D02*
X172492833Y-138050000D01*
X172492833Y-138050000D02*
X172459500Y-137950000D01*
X172459500Y-137950000D02*
X172426166Y-137916667D01*
X172492833Y-137483334D02*
X172492833Y-137350000D01*
X172492833Y-137350000D02*
X172459500Y-137283334D01*
X172459500Y-137283334D02*
X172392833Y-137216667D01*
X172392833Y-137216667D02*
X172259500Y-137183334D01*
X172259500Y-137183334D02*
X172026166Y-137183334D01*
X172026166Y-137183334D02*
X171892833Y-137216667D01*
X171892833Y-137216667D02*
X171826166Y-137283334D01*
X171826166Y-137283334D02*
X171792833Y-137350000D01*
X171792833Y-137350000D02*
X171792833Y-137483334D01*
X171792833Y-137483334D02*
X171826166Y-137550000D01*
X171826166Y-137550000D02*
X171892833Y-137616667D01*
X171892833Y-137616667D02*
X172026166Y-137650000D01*
X172026166Y-137650000D02*
X172259500Y-137650000D01*
X172259500Y-137650000D02*
X172392833Y-137616667D01*
X172392833Y-137616667D02*
X172459500Y-137550000D01*
X172459500Y-137550000D02*
X172492833Y-137483334D01*
X171792833Y-136883334D02*
X172492833Y-136883334D01*
X172492833Y-136883334D02*
X172492833Y-136716667D01*
X172492833Y-136716667D02*
X172459500Y-136616667D01*
X172459500Y-136616667D02*
X172392833Y-136550001D01*
X172392833Y-136550001D02*
X172326166Y-136516667D01*
X172326166Y-136516667D02*
X172192833Y-136483334D01*
X172192833Y-136483334D02*
X172092833Y-136483334D01*
X172092833Y-136483334D02*
X171959500Y-136516667D01*
X171959500Y-136516667D02*
X171892833Y-136550001D01*
X171892833Y-136550001D02*
X171826166Y-136616667D01*
X171826166Y-136616667D02*
X171792833Y-136716667D01*
X171792833Y-136716667D02*
X171792833Y-136883334D01*
X172159500Y-136183334D02*
X172159500Y-135950001D01*
X171792833Y-135850001D02*
X171792833Y-136183334D01*
X171792833Y-136183334D02*
X172492833Y-136183334D01*
X172492833Y-136183334D02*
X172492833Y-135850001D01*
X171792833Y-135150001D02*
X172126166Y-135383334D01*
X171792833Y-135550001D02*
X172492833Y-135550001D01*
X172492833Y-135550001D02*
X172492833Y-135283334D01*
X172492833Y-135283334D02*
X172459500Y-135216668D01*
X172459500Y-135216668D02*
X172426166Y-135183334D01*
X172426166Y-135183334D02*
X172359500Y-135150001D01*
X172359500Y-135150001D02*
X172259500Y-135150001D01*
X172259500Y-135150001D02*
X172192833Y-135183334D01*
X172192833Y-135183334D02*
X172159500Y-135216668D01*
X172159500Y-135216668D02*
X172126166Y-135283334D01*
X172126166Y-135283334D02*
X172126166Y-135550001D01*
X171859500Y-134850001D02*
X171826166Y-134816668D01*
X171826166Y-134816668D02*
X171792833Y-134850001D01*
X171792833Y-134850001D02*
X171826166Y-134883334D01*
X171826166Y-134883334D02*
X171859500Y-134850001D01*
X171859500Y-134850001D02*
X171792833Y-134850001D01*
X172426166Y-134550001D02*
X172459500Y-134516668D01*
X172459500Y-134516668D02*
X172492833Y-134450001D01*
X172492833Y-134450001D02*
X172492833Y-134283335D01*
X172492833Y-134283335D02*
X172459500Y-134216668D01*
X172459500Y-134216668D02*
X172426166Y-134183335D01*
X172426166Y-134183335D02*
X172359500Y-134150001D01*
X172359500Y-134150001D02*
X172292833Y-134150001D01*
X172292833Y-134150001D02*
X172192833Y-134183335D01*
X172192833Y-134183335D02*
X171792833Y-134583335D01*
X171792833Y-134583335D02*
X171792833Y-134150001D01*
X173792833Y-139683333D02*
X174492833Y-139683333D01*
X174492833Y-139683333D02*
X173992833Y-139450000D01*
X173992833Y-139450000D02*
X174492833Y-139216666D01*
X174492833Y-139216666D02*
X173792833Y-139216666D01*
X174426166Y-138916666D02*
X174459500Y-138883333D01*
X174459500Y-138883333D02*
X174492833Y-138816666D01*
X174492833Y-138816666D02*
X174492833Y-138650000D01*
X174492833Y-138650000D02*
X174459500Y-138583333D01*
X174459500Y-138583333D02*
X174426166Y-138550000D01*
X174426166Y-138550000D02*
X174359500Y-138516666D01*
X174359500Y-138516666D02*
X174292833Y-138516666D01*
X174292833Y-138516666D02*
X174192833Y-138550000D01*
X174192833Y-138550000D02*
X173792833Y-138950000D01*
X173792833Y-138950000D02*
X173792833Y-138516666D01*
X118059500Y-139433333D02*
X118059500Y-138900000D01*
X117792833Y-139166666D02*
X118326166Y-139166666D01*
X118492833Y-138633333D02*
X118492833Y-138199999D01*
X118492833Y-138199999D02*
X118226166Y-138433333D01*
X118226166Y-138433333D02*
X118226166Y-138333333D01*
X118226166Y-138333333D02*
X118192833Y-138266666D01*
X118192833Y-138266666D02*
X118159500Y-138233333D01*
X118159500Y-138233333D02*
X118092833Y-138199999D01*
X118092833Y-138199999D02*
X117926166Y-138199999D01*
X117926166Y-138199999D02*
X117859500Y-138233333D01*
X117859500Y-138233333D02*
X117826166Y-138266666D01*
X117826166Y-138266666D02*
X117792833Y-138333333D01*
X117792833Y-138333333D02*
X117792833Y-138533333D01*
X117792833Y-138533333D02*
X117826166Y-138599999D01*
X117826166Y-138599999D02*
X117859500Y-138633333D01*
X118259500Y-137966666D02*
X117792833Y-137799999D01*
X117792833Y-137799999D02*
X118259500Y-137633332D01*
X118492833Y-137433333D02*
X118492833Y-136999999D01*
X118492833Y-136999999D02*
X118226166Y-137233333D01*
X118226166Y-137233333D02*
X118226166Y-137133333D01*
X118226166Y-137133333D02*
X118192833Y-137066666D01*
X118192833Y-137066666D02*
X118159500Y-137033333D01*
X118159500Y-137033333D02*
X118092833Y-136999999D01*
X118092833Y-136999999D02*
X117926166Y-136999999D01*
X117926166Y-136999999D02*
X117859500Y-137033333D01*
X117859500Y-137033333D02*
X117826166Y-137066666D01*
X117826166Y-137066666D02*
X117792833Y-137133333D01*
X117792833Y-137133333D02*
X117792833Y-137333333D01*
X117792833Y-137333333D02*
X117826166Y-137399999D01*
X117826166Y-137399999D02*
X117859500Y-137433333D01*
X175792833Y-139683333D02*
X176492833Y-139683333D01*
X176492833Y-139683333D02*
X175992833Y-139450000D01*
X175992833Y-139450000D02*
X176492833Y-139216666D01*
X176492833Y-139216666D02*
X175792833Y-139216666D01*
X175792833Y-138516666D02*
X175792833Y-138916666D01*
X175792833Y-138716666D02*
X176492833Y-138716666D01*
X176492833Y-138716666D02*
X176392833Y-138783333D01*
X176392833Y-138783333D02*
X176326166Y-138850000D01*
X176326166Y-138850000D02*
X176292833Y-138916666D01*
X170159500Y-139683333D02*
X170159500Y-139450000D01*
X169792833Y-139350000D02*
X169792833Y-139683333D01*
X169792833Y-139683333D02*
X170492833Y-139683333D01*
X170492833Y-139683333D02*
X170492833Y-139350000D01*
X169792833Y-139050000D02*
X170492833Y-139050000D01*
X170492833Y-139050000D02*
X169792833Y-138650000D01*
X169792833Y-138650000D02*
X170492833Y-138650000D01*
X169859500Y-137916667D02*
X169826166Y-137950000D01*
X169826166Y-137950000D02*
X169792833Y-138050000D01*
X169792833Y-138050000D02*
X169792833Y-138116667D01*
X169792833Y-138116667D02*
X169826166Y-138216667D01*
X169826166Y-138216667D02*
X169892833Y-138283334D01*
X169892833Y-138283334D02*
X169959500Y-138316667D01*
X169959500Y-138316667D02*
X170092833Y-138350000D01*
X170092833Y-138350000D02*
X170192833Y-138350000D01*
X170192833Y-138350000D02*
X170326166Y-138316667D01*
X170326166Y-138316667D02*
X170392833Y-138283334D01*
X170392833Y-138283334D02*
X170459500Y-138216667D01*
X170459500Y-138216667D02*
X170492833Y-138116667D01*
X170492833Y-138116667D02*
X170492833Y-138050000D01*
X170492833Y-138050000D02*
X170459500Y-137950000D01*
X170459500Y-137950000D02*
X170426166Y-137916667D01*
X170492833Y-137483334D02*
X170492833Y-137350000D01*
X170492833Y-137350000D02*
X170459500Y-137283334D01*
X170459500Y-137283334D02*
X170392833Y-137216667D01*
X170392833Y-137216667D02*
X170259500Y-137183334D01*
X170259500Y-137183334D02*
X170026166Y-137183334D01*
X170026166Y-137183334D02*
X169892833Y-137216667D01*
X169892833Y-137216667D02*
X169826166Y-137283334D01*
X169826166Y-137283334D02*
X169792833Y-137350000D01*
X169792833Y-137350000D02*
X169792833Y-137483334D01*
X169792833Y-137483334D02*
X169826166Y-137550000D01*
X169826166Y-137550000D02*
X169892833Y-137616667D01*
X169892833Y-137616667D02*
X170026166Y-137650000D01*
X170026166Y-137650000D02*
X170259500Y-137650000D01*
X170259500Y-137650000D02*
X170392833Y-137616667D01*
X170392833Y-137616667D02*
X170459500Y-137550000D01*
X170459500Y-137550000D02*
X170492833Y-137483334D01*
X169792833Y-136883334D02*
X170492833Y-136883334D01*
X170492833Y-136883334D02*
X170492833Y-136716667D01*
X170492833Y-136716667D02*
X170459500Y-136616667D01*
X170459500Y-136616667D02*
X170392833Y-136550001D01*
X170392833Y-136550001D02*
X170326166Y-136516667D01*
X170326166Y-136516667D02*
X170192833Y-136483334D01*
X170192833Y-136483334D02*
X170092833Y-136483334D01*
X170092833Y-136483334D02*
X169959500Y-136516667D01*
X169959500Y-136516667D02*
X169892833Y-136550001D01*
X169892833Y-136550001D02*
X169826166Y-136616667D01*
X169826166Y-136616667D02*
X169792833Y-136716667D01*
X169792833Y-136716667D02*
X169792833Y-136883334D01*
X170159500Y-136183334D02*
X170159500Y-135950001D01*
X169792833Y-135850001D02*
X169792833Y-136183334D01*
X169792833Y-136183334D02*
X170492833Y-136183334D01*
X170492833Y-136183334D02*
X170492833Y-135850001D01*
X169792833Y-135150001D02*
X170126166Y-135383334D01*
X169792833Y-135550001D02*
X170492833Y-135550001D01*
X170492833Y-135550001D02*
X170492833Y-135283334D01*
X170492833Y-135283334D02*
X170459500Y-135216668D01*
X170459500Y-135216668D02*
X170426166Y-135183334D01*
X170426166Y-135183334D02*
X170359500Y-135150001D01*
X170359500Y-135150001D02*
X170259500Y-135150001D01*
X170259500Y-135150001D02*
X170192833Y-135183334D01*
X170192833Y-135183334D02*
X170159500Y-135216668D01*
X170159500Y-135216668D02*
X170126166Y-135283334D01*
X170126166Y-135283334D02*
X170126166Y-135550001D01*
X169859500Y-134850001D02*
X169826166Y-134816668D01*
X169826166Y-134816668D02*
X169792833Y-134850001D01*
X169792833Y-134850001D02*
X169826166Y-134883334D01*
X169826166Y-134883334D02*
X169859500Y-134850001D01*
X169859500Y-134850001D02*
X169792833Y-134850001D01*
X169792833Y-134150001D02*
X169792833Y-134550001D01*
X169792833Y-134350001D02*
X170492833Y-134350001D01*
X170492833Y-134350001D02*
X170392833Y-134416668D01*
X170392833Y-134416668D02*
X170326166Y-134483335D01*
X170326166Y-134483335D02*
X170292833Y-134550001D01*
X125792833Y-139683333D02*
X126492833Y-139683333D01*
X126492833Y-139683333D02*
X125992833Y-139450000D01*
X125992833Y-139450000D02*
X126492833Y-139216666D01*
X126492833Y-139216666D02*
X125792833Y-139216666D01*
X125792833Y-138516666D02*
X125792833Y-138916666D01*
X125792833Y-138716666D02*
X126492833Y-138716666D01*
X126492833Y-138716666D02*
X126392833Y-138783333D01*
X126392833Y-138783333D02*
X126326166Y-138850000D01*
X126326166Y-138850000D02*
X126292833Y-138916666D01*
X120159500Y-139683333D02*
X120159500Y-139450000D01*
X119792833Y-139350000D02*
X119792833Y-139683333D01*
X119792833Y-139683333D02*
X120492833Y-139683333D01*
X120492833Y-139683333D02*
X120492833Y-139350000D01*
X119792833Y-139050000D02*
X120492833Y-139050000D01*
X120492833Y-139050000D02*
X119792833Y-138650000D01*
X119792833Y-138650000D02*
X120492833Y-138650000D01*
X119859500Y-137916667D02*
X119826166Y-137950000D01*
X119826166Y-137950000D02*
X119792833Y-138050000D01*
X119792833Y-138050000D02*
X119792833Y-138116667D01*
X119792833Y-138116667D02*
X119826166Y-138216667D01*
X119826166Y-138216667D02*
X119892833Y-138283334D01*
X119892833Y-138283334D02*
X119959500Y-138316667D01*
X119959500Y-138316667D02*
X120092833Y-138350000D01*
X120092833Y-138350000D02*
X120192833Y-138350000D01*
X120192833Y-138350000D02*
X120326166Y-138316667D01*
X120326166Y-138316667D02*
X120392833Y-138283334D01*
X120392833Y-138283334D02*
X120459500Y-138216667D01*
X120459500Y-138216667D02*
X120492833Y-138116667D01*
X120492833Y-138116667D02*
X120492833Y-138050000D01*
X120492833Y-138050000D02*
X120459500Y-137950000D01*
X120459500Y-137950000D02*
X120426166Y-137916667D01*
X120492833Y-137483334D02*
X120492833Y-137350000D01*
X120492833Y-137350000D02*
X120459500Y-137283334D01*
X120459500Y-137283334D02*
X120392833Y-137216667D01*
X120392833Y-137216667D02*
X120259500Y-137183334D01*
X120259500Y-137183334D02*
X120026166Y-137183334D01*
X120026166Y-137183334D02*
X119892833Y-137216667D01*
X119892833Y-137216667D02*
X119826166Y-137283334D01*
X119826166Y-137283334D02*
X119792833Y-137350000D01*
X119792833Y-137350000D02*
X119792833Y-137483334D01*
X119792833Y-137483334D02*
X119826166Y-137550000D01*
X119826166Y-137550000D02*
X119892833Y-137616667D01*
X119892833Y-137616667D02*
X120026166Y-137650000D01*
X120026166Y-137650000D02*
X120259500Y-137650000D01*
X120259500Y-137650000D02*
X120392833Y-137616667D01*
X120392833Y-137616667D02*
X120459500Y-137550000D01*
X120459500Y-137550000D02*
X120492833Y-137483334D01*
X119792833Y-136883334D02*
X120492833Y-136883334D01*
X120492833Y-136883334D02*
X120492833Y-136716667D01*
X120492833Y-136716667D02*
X120459500Y-136616667D01*
X120459500Y-136616667D02*
X120392833Y-136550001D01*
X120392833Y-136550001D02*
X120326166Y-136516667D01*
X120326166Y-136516667D02*
X120192833Y-136483334D01*
X120192833Y-136483334D02*
X120092833Y-136483334D01*
X120092833Y-136483334D02*
X119959500Y-136516667D01*
X119959500Y-136516667D02*
X119892833Y-136550001D01*
X119892833Y-136550001D02*
X119826166Y-136616667D01*
X119826166Y-136616667D02*
X119792833Y-136716667D01*
X119792833Y-136716667D02*
X119792833Y-136883334D01*
X120159500Y-136183334D02*
X120159500Y-135950001D01*
X119792833Y-135850001D02*
X119792833Y-136183334D01*
X119792833Y-136183334D02*
X120492833Y-136183334D01*
X120492833Y-136183334D02*
X120492833Y-135850001D01*
X119792833Y-135150001D02*
X120126166Y-135383334D01*
X119792833Y-135550001D02*
X120492833Y-135550001D01*
X120492833Y-135550001D02*
X120492833Y-135283334D01*
X120492833Y-135283334D02*
X120459500Y-135216668D01*
X120459500Y-135216668D02*
X120426166Y-135183334D01*
X120426166Y-135183334D02*
X120359500Y-135150001D01*
X120359500Y-135150001D02*
X120259500Y-135150001D01*
X120259500Y-135150001D02*
X120192833Y-135183334D01*
X120192833Y-135183334D02*
X120159500Y-135216668D01*
X120159500Y-135216668D02*
X120126166Y-135283334D01*
X120126166Y-135283334D02*
X120126166Y-135550001D01*
X119859500Y-134850001D02*
X119826166Y-134816668D01*
X119826166Y-134816668D02*
X119792833Y-134850001D01*
X119792833Y-134850001D02*
X119826166Y-134883334D01*
X119826166Y-134883334D02*
X119859500Y-134850001D01*
X119859500Y-134850001D02*
X119792833Y-134850001D01*
X119792833Y-134150001D02*
X119792833Y-134550001D01*
X119792833Y-134350001D02*
X120492833Y-134350001D01*
X120492833Y-134350001D02*
X120392833Y-134416668D01*
X120392833Y-134416668D02*
X120326166Y-134483335D01*
X120326166Y-134483335D02*
X120292833Y-134550001D01*
X123792833Y-139683333D02*
X124492833Y-139683333D01*
X124492833Y-139683333D02*
X123992833Y-139450000D01*
X123992833Y-139450000D02*
X124492833Y-139216666D01*
X124492833Y-139216666D02*
X123792833Y-139216666D01*
X124426166Y-138916666D02*
X124459500Y-138883333D01*
X124459500Y-138883333D02*
X124492833Y-138816666D01*
X124492833Y-138816666D02*
X124492833Y-138650000D01*
X124492833Y-138650000D02*
X124459500Y-138583333D01*
X124459500Y-138583333D02*
X124426166Y-138550000D01*
X124426166Y-138550000D02*
X124359500Y-138516666D01*
X124359500Y-138516666D02*
X124292833Y-138516666D01*
X124292833Y-138516666D02*
X124192833Y-138550000D01*
X124192833Y-138550000D02*
X123792833Y-138950000D01*
X123792833Y-138950000D02*
X123792833Y-138516666D01*
X116459500Y-139066666D02*
X116492833Y-139133333D01*
X116492833Y-139133333D02*
X116492833Y-139233333D01*
X116492833Y-139233333D02*
X116459500Y-139333333D01*
X116459500Y-139333333D02*
X116392833Y-139400000D01*
X116392833Y-139400000D02*
X116326166Y-139433333D01*
X116326166Y-139433333D02*
X116192833Y-139466666D01*
X116192833Y-139466666D02*
X116092833Y-139466666D01*
X116092833Y-139466666D02*
X115959500Y-139433333D01*
X115959500Y-139433333D02*
X115892833Y-139400000D01*
X115892833Y-139400000D02*
X115826166Y-139333333D01*
X115826166Y-139333333D02*
X115792833Y-139233333D01*
X115792833Y-139233333D02*
X115792833Y-139166666D01*
X115792833Y-139166666D02*
X115826166Y-139066666D01*
X115826166Y-139066666D02*
X115859500Y-139033333D01*
X115859500Y-139033333D02*
X116092833Y-139033333D01*
X116092833Y-139033333D02*
X116092833Y-139166666D01*
X115792833Y-138733333D02*
X116492833Y-138733333D01*
X116492833Y-138733333D02*
X115792833Y-138333333D01*
X115792833Y-138333333D02*
X116492833Y-138333333D01*
X115792833Y-138000000D02*
X116492833Y-138000000D01*
X116492833Y-138000000D02*
X116492833Y-137833333D01*
X116492833Y-137833333D02*
X116459500Y-137733333D01*
X116459500Y-137733333D02*
X116392833Y-137666667D01*
X116392833Y-137666667D02*
X116326166Y-137633333D01*
X116326166Y-137633333D02*
X116192833Y-137600000D01*
X116192833Y-137600000D02*
X116092833Y-137600000D01*
X116092833Y-137600000D02*
X115959500Y-137633333D01*
X115959500Y-137633333D02*
X115892833Y-137666667D01*
X115892833Y-137666667D02*
X115826166Y-137733333D01*
X115826166Y-137733333D02*
X115792833Y-137833333D01*
X115792833Y-137833333D02*
X115792833Y-138000000D01*
X166459500Y-139066666D02*
X166492833Y-139133333D01*
X166492833Y-139133333D02*
X166492833Y-139233333D01*
X166492833Y-139233333D02*
X166459500Y-139333333D01*
X166459500Y-139333333D02*
X166392833Y-139400000D01*
X166392833Y-139400000D02*
X166326166Y-139433333D01*
X166326166Y-139433333D02*
X166192833Y-139466666D01*
X166192833Y-139466666D02*
X166092833Y-139466666D01*
X166092833Y-139466666D02*
X165959500Y-139433333D01*
X165959500Y-139433333D02*
X165892833Y-139400000D01*
X165892833Y-139400000D02*
X165826166Y-139333333D01*
X165826166Y-139333333D02*
X165792833Y-139233333D01*
X165792833Y-139233333D02*
X165792833Y-139166666D01*
X165792833Y-139166666D02*
X165826166Y-139066666D01*
X165826166Y-139066666D02*
X165859500Y-139033333D01*
X165859500Y-139033333D02*
X166092833Y-139033333D01*
X166092833Y-139033333D02*
X166092833Y-139166666D01*
X165792833Y-138733333D02*
X166492833Y-138733333D01*
X166492833Y-138733333D02*
X165792833Y-138333333D01*
X165792833Y-138333333D02*
X166492833Y-138333333D01*
X165792833Y-138000000D02*
X166492833Y-138000000D01*
X166492833Y-138000000D02*
X166492833Y-137833333D01*
X166492833Y-137833333D02*
X166459500Y-137733333D01*
X166459500Y-137733333D02*
X166392833Y-137666667D01*
X166392833Y-137666667D02*
X166326166Y-137633333D01*
X166326166Y-137633333D02*
X166192833Y-137600000D01*
X166192833Y-137600000D02*
X166092833Y-137600000D01*
X166092833Y-137600000D02*
X165959500Y-137633333D01*
X165959500Y-137633333D02*
X165892833Y-137666667D01*
X165892833Y-137666667D02*
X165826166Y-137733333D01*
X165826166Y-137733333D02*
X165792833Y-137833333D01*
X165792833Y-137833333D02*
X165792833Y-138000000D01*
X168059500Y-139433333D02*
X168059500Y-138900000D01*
X167792833Y-139166666D02*
X168326166Y-139166666D01*
X168492833Y-138633333D02*
X168492833Y-138199999D01*
X168492833Y-138199999D02*
X168226166Y-138433333D01*
X168226166Y-138433333D02*
X168226166Y-138333333D01*
X168226166Y-138333333D02*
X168192833Y-138266666D01*
X168192833Y-138266666D02*
X168159500Y-138233333D01*
X168159500Y-138233333D02*
X168092833Y-138199999D01*
X168092833Y-138199999D02*
X167926166Y-138199999D01*
X167926166Y-138199999D02*
X167859500Y-138233333D01*
X167859500Y-138233333D02*
X167826166Y-138266666D01*
X167826166Y-138266666D02*
X167792833Y-138333333D01*
X167792833Y-138333333D02*
X167792833Y-138533333D01*
X167792833Y-138533333D02*
X167826166Y-138599999D01*
X167826166Y-138599999D02*
X167859500Y-138633333D01*
X168259500Y-137966666D02*
X167792833Y-137799999D01*
X167792833Y-137799999D02*
X168259500Y-137633332D01*
X168492833Y-137433333D02*
X168492833Y-136999999D01*
X168492833Y-136999999D02*
X168226166Y-137233333D01*
X168226166Y-137233333D02*
X168226166Y-137133333D01*
X168226166Y-137133333D02*
X168192833Y-137066666D01*
X168192833Y-137066666D02*
X168159500Y-137033333D01*
X168159500Y-137033333D02*
X168092833Y-136999999D01*
X168092833Y-136999999D02*
X167926166Y-136999999D01*
X167926166Y-136999999D02*
X167859500Y-137033333D01*
X167859500Y-137033333D02*
X167826166Y-137066666D01*
X167826166Y-137066666D02*
X167792833Y-137133333D01*
X167792833Y-137133333D02*
X167792833Y-137333333D01*
X167792833Y-137333333D02*
X167826166Y-137399999D01*
X167826166Y-137399999D02*
X167859500Y-137433333D01*
%TO.C,U14*%
X143027166Y-65925833D02*
X143593833Y-65925833D01*
X143593833Y-65925833D02*
X143660500Y-65959167D01*
X143660500Y-65959167D02*
X143693833Y-65992500D01*
X143693833Y-65992500D02*
X143727166Y-66059167D01*
X143727166Y-66059167D02*
X143727166Y-66192500D01*
X143727166Y-66192500D02*
X143693833Y-66259167D01*
X143693833Y-66259167D02*
X143660500Y-66292500D01*
X143660500Y-66292500D02*
X143593833Y-66325833D01*
X143593833Y-66325833D02*
X143027166Y-66325833D01*
X143727166Y-67025833D02*
X143727166Y-66625833D01*
X143727166Y-66825833D02*
X143027166Y-66825833D01*
X143027166Y-66825833D02*
X143127166Y-66759166D01*
X143127166Y-66759166D02*
X143193833Y-66692500D01*
X143193833Y-66692500D02*
X143227166Y-66625833D01*
X143260500Y-67625833D02*
X143727166Y-67625833D01*
X142993833Y-67459167D02*
X143493833Y-67292500D01*
X143493833Y-67292500D02*
X143493833Y-67725833D01*
%TO.C,U10*%
X112547166Y-53233333D02*
X113113833Y-53233333D01*
X113113833Y-53233333D02*
X113180500Y-53266667D01*
X113180500Y-53266667D02*
X113213833Y-53300000D01*
X113213833Y-53300000D02*
X113247166Y-53366667D01*
X113247166Y-53366667D02*
X113247166Y-53500000D01*
X113247166Y-53500000D02*
X113213833Y-53566667D01*
X113213833Y-53566667D02*
X113180500Y-53600000D01*
X113180500Y-53600000D02*
X113113833Y-53633333D01*
X113113833Y-53633333D02*
X112547166Y-53633333D01*
X113247166Y-54333333D02*
X113247166Y-53933333D01*
X113247166Y-54133333D02*
X112547166Y-54133333D01*
X112547166Y-54133333D02*
X112647166Y-54066666D01*
X112647166Y-54066666D02*
X112713833Y-54000000D01*
X112713833Y-54000000D02*
X112747166Y-53933333D01*
X112547166Y-54766667D02*
X112547166Y-54833333D01*
X112547166Y-54833333D02*
X112580500Y-54900000D01*
X112580500Y-54900000D02*
X112613833Y-54933333D01*
X112613833Y-54933333D02*
X112680500Y-54966667D01*
X112680500Y-54966667D02*
X112813833Y-55000000D01*
X112813833Y-55000000D02*
X112980500Y-55000000D01*
X112980500Y-55000000D02*
X113113833Y-54966667D01*
X113113833Y-54966667D02*
X113180500Y-54933333D01*
X113180500Y-54933333D02*
X113213833Y-54900000D01*
X113213833Y-54900000D02*
X113247166Y-54833333D01*
X113247166Y-54833333D02*
X113247166Y-54766667D01*
X113247166Y-54766667D02*
X113213833Y-54700000D01*
X113213833Y-54700000D02*
X113180500Y-54666667D01*
X113180500Y-54666667D02*
X113113833Y-54633333D01*
X113113833Y-54633333D02*
X112980500Y-54600000D01*
X112980500Y-54600000D02*
X112813833Y-54600000D01*
X112813833Y-54600000D02*
X112680500Y-54633333D01*
X112680500Y-54633333D02*
X112613833Y-54666667D01*
X112613833Y-54666667D02*
X112580500Y-54700000D01*
X112580500Y-54700000D02*
X112547166Y-54766667D01*
%TO.C,U9*%
X117707166Y-53566666D02*
X118273833Y-53566666D01*
X118273833Y-53566666D02*
X118340500Y-53600000D01*
X118340500Y-53600000D02*
X118373833Y-53633333D01*
X118373833Y-53633333D02*
X118407166Y-53700000D01*
X118407166Y-53700000D02*
X118407166Y-53833333D01*
X118407166Y-53833333D02*
X118373833Y-53900000D01*
X118373833Y-53900000D02*
X118340500Y-53933333D01*
X118340500Y-53933333D02*
X118273833Y-53966666D01*
X118273833Y-53966666D02*
X117707166Y-53966666D01*
X118407166Y-54333333D02*
X118407166Y-54466666D01*
X118407166Y-54466666D02*
X118373833Y-54533333D01*
X118373833Y-54533333D02*
X118340500Y-54566666D01*
X118340500Y-54566666D02*
X118240500Y-54633333D01*
X118240500Y-54633333D02*
X118107166Y-54666666D01*
X118107166Y-54666666D02*
X117840500Y-54666666D01*
X117840500Y-54666666D02*
X117773833Y-54633333D01*
X117773833Y-54633333D02*
X117740500Y-54599999D01*
X117740500Y-54599999D02*
X117707166Y-54533333D01*
X117707166Y-54533333D02*
X117707166Y-54399999D01*
X117707166Y-54399999D02*
X117740500Y-54333333D01*
X117740500Y-54333333D02*
X117773833Y-54299999D01*
X117773833Y-54299999D02*
X117840500Y-54266666D01*
X117840500Y-54266666D02*
X118007166Y-54266666D01*
X118007166Y-54266666D02*
X118073833Y-54299999D01*
X118073833Y-54299999D02*
X118107166Y-54333333D01*
X118107166Y-54333333D02*
X118140500Y-54399999D01*
X118140500Y-54399999D02*
X118140500Y-54533333D01*
X118140500Y-54533333D02*
X118107166Y-54599999D01*
X118107166Y-54599999D02*
X118073833Y-54633333D01*
X118073833Y-54633333D02*
X118007166Y-54666666D01*
D12*
%TO.C,JP1*%
X140667380Y-112535714D02*
X140667380Y-111964286D01*
X140667380Y-112250000D02*
X139667380Y-112250000D01*
X139667380Y-112250000D02*
X139810238Y-112154762D01*
X139810238Y-112154762D02*
X139905476Y-112059524D01*
X139905476Y-112059524D02*
X139953095Y-111964286D01*
X139667380Y-117402381D02*
X139667380Y-117497619D01*
X139667380Y-117497619D02*
X139715000Y-117592857D01*
X139715000Y-117592857D02*
X139762619Y-117640476D01*
X139762619Y-117640476D02*
X139857857Y-117688095D01*
X139857857Y-117688095D02*
X140048333Y-117735714D01*
X140048333Y-117735714D02*
X140286428Y-117735714D01*
X140286428Y-117735714D02*
X140476904Y-117688095D01*
X140476904Y-117688095D02*
X140572142Y-117640476D01*
X140572142Y-117640476D02*
X140619761Y-117592857D01*
X140619761Y-117592857D02*
X140667380Y-117497619D01*
X140667380Y-117497619D02*
X140667380Y-117402381D01*
X140667380Y-117402381D02*
X140619761Y-117307143D01*
X140619761Y-117307143D02*
X140572142Y-117259524D01*
X140572142Y-117259524D02*
X140476904Y-117211905D01*
X140476904Y-117211905D02*
X140286428Y-117164286D01*
X140286428Y-117164286D02*
X140048333Y-117164286D01*
X140048333Y-117164286D02*
X139857857Y-117211905D01*
X139857857Y-117211905D02*
X139762619Y-117259524D01*
X139762619Y-117259524D02*
X139715000Y-117307143D01*
X139715000Y-117307143D02*
X139667380Y-117402381D01*
D10*
%TO.C,U3*%
X178667166Y-53566666D02*
X179233833Y-53566666D01*
X179233833Y-53566666D02*
X179300500Y-53600000D01*
X179300500Y-53600000D02*
X179333833Y-53633333D01*
X179333833Y-53633333D02*
X179367166Y-53700000D01*
X179367166Y-53700000D02*
X179367166Y-53833333D01*
X179367166Y-53833333D02*
X179333833Y-53900000D01*
X179333833Y-53900000D02*
X179300500Y-53933333D01*
X179300500Y-53933333D02*
X179233833Y-53966666D01*
X179233833Y-53966666D02*
X178667166Y-53966666D01*
X178667166Y-54233333D02*
X178667166Y-54666666D01*
X178667166Y-54666666D02*
X178933833Y-54433333D01*
X178933833Y-54433333D02*
X178933833Y-54533333D01*
X178933833Y-54533333D02*
X178967166Y-54599999D01*
X178967166Y-54599999D02*
X179000500Y-54633333D01*
X179000500Y-54633333D02*
X179067166Y-54666666D01*
X179067166Y-54666666D02*
X179233833Y-54666666D01*
X179233833Y-54666666D02*
X179300500Y-54633333D01*
X179300500Y-54633333D02*
X179333833Y-54599999D01*
X179333833Y-54599999D02*
X179367166Y-54533333D01*
X179367166Y-54533333D02*
X179367166Y-54333333D01*
X179367166Y-54333333D02*
X179333833Y-54266666D01*
X179333833Y-54266666D02*
X179300500Y-54233333D01*
%TO.C,U8*%
X132867166Y-53566666D02*
X133433833Y-53566666D01*
X133433833Y-53566666D02*
X133500500Y-53600000D01*
X133500500Y-53600000D02*
X133533833Y-53633333D01*
X133533833Y-53633333D02*
X133567166Y-53700000D01*
X133567166Y-53700000D02*
X133567166Y-53833333D01*
X133567166Y-53833333D02*
X133533833Y-53900000D01*
X133533833Y-53900000D02*
X133500500Y-53933333D01*
X133500500Y-53933333D02*
X133433833Y-53966666D01*
X133433833Y-53966666D02*
X132867166Y-53966666D01*
X133167166Y-54399999D02*
X133133833Y-54333333D01*
X133133833Y-54333333D02*
X133100500Y-54299999D01*
X133100500Y-54299999D02*
X133033833Y-54266666D01*
X133033833Y-54266666D02*
X133000500Y-54266666D01*
X133000500Y-54266666D02*
X132933833Y-54299999D01*
X132933833Y-54299999D02*
X132900500Y-54333333D01*
X132900500Y-54333333D02*
X132867166Y-54399999D01*
X132867166Y-54399999D02*
X132867166Y-54533333D01*
X132867166Y-54533333D02*
X132900500Y-54599999D01*
X132900500Y-54599999D02*
X132933833Y-54633333D01*
X132933833Y-54633333D02*
X133000500Y-54666666D01*
X133000500Y-54666666D02*
X133033833Y-54666666D01*
X133033833Y-54666666D02*
X133100500Y-54633333D01*
X133100500Y-54633333D02*
X133133833Y-54599999D01*
X133133833Y-54599999D02*
X133167166Y-54533333D01*
X133167166Y-54533333D02*
X133167166Y-54399999D01*
X133167166Y-54399999D02*
X133200500Y-54333333D01*
X133200500Y-54333333D02*
X133233833Y-54299999D01*
X133233833Y-54299999D02*
X133300500Y-54266666D01*
X133300500Y-54266666D02*
X133433833Y-54266666D01*
X133433833Y-54266666D02*
X133500500Y-54299999D01*
X133500500Y-54299999D02*
X133533833Y-54333333D01*
X133533833Y-54333333D02*
X133567166Y-54399999D01*
X133567166Y-54399999D02*
X133567166Y-54533333D01*
X133567166Y-54533333D02*
X133533833Y-54599999D01*
X133533833Y-54599999D02*
X133500500Y-54633333D01*
X133500500Y-54633333D02*
X133433833Y-54666666D01*
X133433833Y-54666666D02*
X133300500Y-54666666D01*
X133300500Y-54666666D02*
X133233833Y-54633333D01*
X133233833Y-54633333D02*
X133200500Y-54599999D01*
X133200500Y-54599999D02*
X133167166Y-54533333D01*
%TO.C,U6*%
X137777166Y-53374166D02*
X138343833Y-53374166D01*
X138343833Y-53374166D02*
X138410500Y-53407500D01*
X138410500Y-53407500D02*
X138443833Y-53440833D01*
X138443833Y-53440833D02*
X138477166Y-53507500D01*
X138477166Y-53507500D02*
X138477166Y-53640833D01*
X138477166Y-53640833D02*
X138443833Y-53707500D01*
X138443833Y-53707500D02*
X138410500Y-53740833D01*
X138410500Y-53740833D02*
X138343833Y-53774166D01*
X138343833Y-53774166D02*
X137777166Y-53774166D01*
X137777166Y-54407499D02*
X137777166Y-54274166D01*
X137777166Y-54274166D02*
X137810500Y-54207499D01*
X137810500Y-54207499D02*
X137843833Y-54174166D01*
X137843833Y-54174166D02*
X137943833Y-54107499D01*
X137943833Y-54107499D02*
X138077166Y-54074166D01*
X138077166Y-54074166D02*
X138343833Y-54074166D01*
X138343833Y-54074166D02*
X138410500Y-54107499D01*
X138410500Y-54107499D02*
X138443833Y-54140833D01*
X138443833Y-54140833D02*
X138477166Y-54207499D01*
X138477166Y-54207499D02*
X138477166Y-54340833D01*
X138477166Y-54340833D02*
X138443833Y-54407499D01*
X138443833Y-54407499D02*
X138410500Y-54440833D01*
X138410500Y-54440833D02*
X138343833Y-54474166D01*
X138343833Y-54474166D02*
X138177166Y-54474166D01*
X138177166Y-54474166D02*
X138110500Y-54440833D01*
X138110500Y-54440833D02*
X138077166Y-54407499D01*
X138077166Y-54407499D02*
X138043833Y-54340833D01*
X138043833Y-54340833D02*
X138043833Y-54207499D01*
X138043833Y-54207499D02*
X138077166Y-54140833D01*
X138077166Y-54140833D02*
X138110500Y-54107499D01*
X138110500Y-54107499D02*
X138177166Y-54074166D01*
%TO.C,U7*%
X173507166Y-53566666D02*
X174073833Y-53566666D01*
X174073833Y-53566666D02*
X174140500Y-53600000D01*
X174140500Y-53600000D02*
X174173833Y-53633333D01*
X174173833Y-53633333D02*
X174207166Y-53700000D01*
X174207166Y-53700000D02*
X174207166Y-53833333D01*
X174207166Y-53833333D02*
X174173833Y-53900000D01*
X174173833Y-53900000D02*
X174140500Y-53933333D01*
X174140500Y-53933333D02*
X174073833Y-53966666D01*
X174073833Y-53966666D02*
X173507166Y-53966666D01*
X173507166Y-54233333D02*
X173507166Y-54699999D01*
X173507166Y-54699999D02*
X174207166Y-54399999D01*
%TO.C,C17*%
X111500000Y-108720500D02*
X111533333Y-108753833D01*
X111533333Y-108753833D02*
X111633333Y-108787166D01*
X111633333Y-108787166D02*
X111700000Y-108787166D01*
X111700000Y-108787166D02*
X111800000Y-108753833D01*
X111800000Y-108753833D02*
X111866667Y-108687166D01*
X111866667Y-108687166D02*
X111900000Y-108620500D01*
X111900000Y-108620500D02*
X111933333Y-108487166D01*
X111933333Y-108487166D02*
X111933333Y-108387166D01*
X111933333Y-108387166D02*
X111900000Y-108253833D01*
X111900000Y-108253833D02*
X111866667Y-108187166D01*
X111866667Y-108187166D02*
X111800000Y-108120500D01*
X111800000Y-108120500D02*
X111700000Y-108087166D01*
X111700000Y-108087166D02*
X111633333Y-108087166D01*
X111633333Y-108087166D02*
X111533333Y-108120500D01*
X111533333Y-108120500D02*
X111500000Y-108153833D01*
X110833333Y-108787166D02*
X111233333Y-108787166D01*
X111033333Y-108787166D02*
X111033333Y-108087166D01*
X111033333Y-108087166D02*
X111100000Y-108187166D01*
X111100000Y-108187166D02*
X111166667Y-108253833D01*
X111166667Y-108253833D02*
X111233333Y-108287166D01*
X110600000Y-108087166D02*
X110133333Y-108087166D01*
X110133333Y-108087166D02*
X110433333Y-108787166D01*
%TO.C,U5*%
X153187166Y-53566666D02*
X153753833Y-53566666D01*
X153753833Y-53566666D02*
X153820500Y-53600000D01*
X153820500Y-53600000D02*
X153853833Y-53633333D01*
X153853833Y-53633333D02*
X153887166Y-53700000D01*
X153887166Y-53700000D02*
X153887166Y-53833333D01*
X153887166Y-53833333D02*
X153853833Y-53900000D01*
X153853833Y-53900000D02*
X153820500Y-53933333D01*
X153820500Y-53933333D02*
X153753833Y-53966666D01*
X153753833Y-53966666D02*
X153187166Y-53966666D01*
X153187166Y-54633333D02*
X153187166Y-54299999D01*
X153187166Y-54299999D02*
X153520500Y-54266666D01*
X153520500Y-54266666D02*
X153487166Y-54299999D01*
X153487166Y-54299999D02*
X153453833Y-54366666D01*
X153453833Y-54366666D02*
X153453833Y-54533333D01*
X153453833Y-54533333D02*
X153487166Y-54599999D01*
X153487166Y-54599999D02*
X153520500Y-54633333D01*
X153520500Y-54633333D02*
X153587166Y-54666666D01*
X153587166Y-54666666D02*
X153753833Y-54666666D01*
X153753833Y-54666666D02*
X153820500Y-54633333D01*
X153820500Y-54633333D02*
X153853833Y-54599999D01*
X153853833Y-54599999D02*
X153887166Y-54533333D01*
X153887166Y-54533333D02*
X153887166Y-54366666D01*
X153887166Y-54366666D02*
X153853833Y-54299999D01*
X153853833Y-54299999D02*
X153820500Y-54266666D01*
%TO.C,U12*%
X148187166Y-65925833D02*
X148753833Y-65925833D01*
X148753833Y-65925833D02*
X148820500Y-65959167D01*
X148820500Y-65959167D02*
X148853833Y-65992500D01*
X148853833Y-65992500D02*
X148887166Y-66059167D01*
X148887166Y-66059167D02*
X148887166Y-66192500D01*
X148887166Y-66192500D02*
X148853833Y-66259167D01*
X148853833Y-66259167D02*
X148820500Y-66292500D01*
X148820500Y-66292500D02*
X148753833Y-66325833D01*
X148753833Y-66325833D02*
X148187166Y-66325833D01*
X148887166Y-67025833D02*
X148887166Y-66625833D01*
X148887166Y-66825833D02*
X148187166Y-66825833D01*
X148187166Y-66825833D02*
X148287166Y-66759166D01*
X148287166Y-66759166D02*
X148353833Y-66692500D01*
X148353833Y-66692500D02*
X148387166Y-66625833D01*
X148253833Y-67292500D02*
X148220500Y-67325833D01*
X148220500Y-67325833D02*
X148187166Y-67392500D01*
X148187166Y-67392500D02*
X148187166Y-67559167D01*
X148187166Y-67559167D02*
X148220500Y-67625833D01*
X148220500Y-67625833D02*
X148253833Y-67659167D01*
X148253833Y-67659167D02*
X148320500Y-67692500D01*
X148320500Y-67692500D02*
X148387166Y-67692500D01*
X148387166Y-67692500D02*
X148487166Y-67659167D01*
X148487166Y-67659167D02*
X148887166Y-67259167D01*
X148887166Y-67259167D02*
X148887166Y-67692500D01*
%TO.C,SW1*%
X172233333Y-104573833D02*
X172133333Y-104607166D01*
X172133333Y-104607166D02*
X171966667Y-104607166D01*
X171966667Y-104607166D02*
X171900000Y-104573833D01*
X171900000Y-104573833D02*
X171866667Y-104540500D01*
X171866667Y-104540500D02*
X171833333Y-104473833D01*
X171833333Y-104473833D02*
X171833333Y-104407166D01*
X171833333Y-104407166D02*
X171866667Y-104340500D01*
X171866667Y-104340500D02*
X171900000Y-104307166D01*
X171900000Y-104307166D02*
X171966667Y-104273833D01*
X171966667Y-104273833D02*
X172100000Y-104240500D01*
X172100000Y-104240500D02*
X172166667Y-104207166D01*
X172166667Y-104207166D02*
X172200000Y-104173833D01*
X172200000Y-104173833D02*
X172233333Y-104107166D01*
X172233333Y-104107166D02*
X172233333Y-104040500D01*
X172233333Y-104040500D02*
X172200000Y-103973833D01*
X172200000Y-103973833D02*
X172166667Y-103940500D01*
X172166667Y-103940500D02*
X172100000Y-103907166D01*
X172100000Y-103907166D02*
X171933333Y-103907166D01*
X171933333Y-103907166D02*
X171833333Y-103940500D01*
X171600000Y-103907166D02*
X171433333Y-104607166D01*
X171433333Y-104607166D02*
X171300000Y-104107166D01*
X171300000Y-104107166D02*
X171166666Y-104607166D01*
X171166666Y-104607166D02*
X171000000Y-103907166D01*
X170366666Y-104607166D02*
X170766666Y-104607166D01*
X170566666Y-104607166D02*
X170566666Y-103907166D01*
X170566666Y-103907166D02*
X170633333Y-104007166D01*
X170633333Y-104007166D02*
X170700000Y-104073833D01*
X170700000Y-104073833D02*
X170766666Y-104107166D01*
%TO.C,U4*%
X158347166Y-53566666D02*
X158913833Y-53566666D01*
X158913833Y-53566666D02*
X158980500Y-53600000D01*
X158980500Y-53600000D02*
X159013833Y-53633333D01*
X159013833Y-53633333D02*
X159047166Y-53700000D01*
X159047166Y-53700000D02*
X159047166Y-53833333D01*
X159047166Y-53833333D02*
X159013833Y-53900000D01*
X159013833Y-53900000D02*
X158980500Y-53933333D01*
X158980500Y-53933333D02*
X158913833Y-53966666D01*
X158913833Y-53966666D02*
X158347166Y-53966666D01*
X158580500Y-54599999D02*
X159047166Y-54599999D01*
X158313833Y-54433333D02*
X158813833Y-54266666D01*
X158813833Y-54266666D02*
X158813833Y-54699999D01*
D11*
%TO.C,U14*%
X142670000Y-68192500D02*
X142670000Y-63992500D01*
X139270000Y-68192500D02*
X139270000Y-65392500D01*
%TO.C,U10*%
X112190000Y-55500000D02*
X112190000Y-51300000D01*
X108790000Y-55500000D02*
X108790000Y-52700000D01*
%TO.C,U9*%
X118950000Y-52700000D02*
X118950000Y-56900000D01*
X122350000Y-52700000D02*
X122350000Y-55500000D01*
%TO.C,JP1*%
X140600000Y-112800000D02*
X140000000Y-112800000D01*
X139300000Y-113450000D02*
X139300000Y-116250000D01*
X141300000Y-116250000D02*
X141300000Y-113450000D01*
X140000000Y-116900000D02*
X140600000Y-116900000D01*
X141300000Y-113500000D02*
G75*
G03*
X140600000Y-112800000I-699999J1D01*
G01*
X140000000Y-112800000D02*
G75*
G03*
X139300000Y-113500000I-1J-699999D01*
G01*
X140600000Y-116900000D02*
G75*
G03*
X141300000Y-116200000I0J700000D01*
G01*
X139300000Y-116200000D02*
G75*
G03*
X140000000Y-116900000I700000J0D01*
G01*
%TO.C,U3*%
X179910000Y-52700000D02*
X179910000Y-56900000D01*
X183310000Y-52700000D02*
X183310000Y-55500000D01*
%TO.C,U8*%
X132510000Y-55500000D02*
X132510000Y-51300000D01*
X129110000Y-55500000D02*
X129110000Y-52700000D01*
%TO.C,U6*%
X139270000Y-52700000D02*
X139270000Y-56900000D01*
X142670000Y-52700000D02*
X142670000Y-55500000D01*
%TO.C,U7*%
X173150000Y-55500000D02*
X173150000Y-51300000D01*
X169750000Y-55500000D02*
X169750000Y-52700000D01*
%TO.C,C17*%
X110788748Y-106115000D02*
X111311252Y-106115000D01*
X110788748Y-107585000D02*
X111311252Y-107585000D01*
%TO.C,U5*%
X152830000Y-55500000D02*
X152830000Y-51300000D01*
X149430000Y-55500000D02*
X149430000Y-52700000D01*
%TO.C,U12*%
X149430000Y-65392500D02*
X149430000Y-69592500D01*
X152830000Y-65392500D02*
X152830000Y-68192500D01*
%TO.C,SW1*%
X167850000Y-105420000D02*
X167850000Y-104630000D01*
X168450000Y-103620000D02*
X174150000Y-103620000D01*
X169700000Y-106470000D02*
X171400000Y-106470000D01*
X169900000Y-102330000D02*
X170100000Y-102120000D01*
X169900000Y-103620000D02*
X169900000Y-102330000D01*
X170100000Y-102120000D02*
X171000000Y-102120000D01*
X171200000Y-102330000D02*
X171000000Y-102120000D01*
X171200000Y-102330000D02*
X171200000Y-103620000D01*
X172700000Y-106470000D02*
X172900000Y-106470000D01*
X174750000Y-104630000D02*
X174750000Y-105420000D01*
%TO.C,U4*%
X159590000Y-52700000D02*
X159590000Y-56900000D01*
X162990000Y-52700000D02*
X162990000Y-55500000D01*
%TD*%
%LPC*%
D13*
%TO.C,J3*%
X166050000Y-141800000D03*
D14*
X168049999Y-141799999D03*
X170049999Y-141799999D03*
X172049999Y-141799999D03*
X174049999Y-141799999D03*
X176049999Y-141799999D03*
%TD*%
D15*
%TO.C,REF\u002A\u002A*%
X154800000Y-89350000D03*
%TD*%
D16*
%TO.C,REF\u002A\u002A*%
X136549999Y-86099999D03*
X137819999Y-86099999D03*
X139089999Y-86099999D03*
X140359999Y-86099999D03*
X141629999Y-86099999D03*
X142899999Y-86099999D03*
X144169999Y-86099999D03*
X145439999Y-86099999D03*
X146709999Y-86099999D03*
X147979999Y-86099999D03*
X149249999Y-86099999D03*
X150519999Y-86099999D03*
X151789999Y-86099999D03*
X153059999Y-86099999D03*
X154329999Y-86099999D03*
X155599999Y-86099999D03*
%TD*%
D13*
%TO.C,J9*%
X180050000Y-105350000D03*
D14*
X182049999Y-105349999D03*
%TD*%
D13*
%TO.C,J5*%
X116050000Y-141800000D03*
D14*
X118049999Y-141799999D03*
X120049999Y-141799999D03*
X122049999Y-141799999D03*
X124049999Y-141799999D03*
X126049999Y-141799999D03*
%TD*%
D15*
%TO.C,REF\u002A\u002A*%
X154800000Y-82850000D03*
%TD*%
%TO.C,REF\u002A\u002A*%
X137300000Y-82850000D03*
%TD*%
D13*
%TO.C,J4*%
X110050000Y-105347500D03*
D14*
X112049999Y-105347499D03*
%TD*%
D17*
%TO.C,REF\u002A\u002A*%
X191770000Y-134600000D03*
X191770000Y-116600000D03*
%TD*%
D18*
%TO.C,J1*%
X143160000Y-139481250D03*
X148940000Y-139481250D03*
D19*
X141729999Y-138951249D03*
D20*
X141729999Y-143131249D03*
D19*
X150369999Y-138951249D03*
D20*
X150369999Y-143131249D03*
%TD*%
D15*
%TO.C,REF\u002A\u002A*%
X137300000Y-89600000D03*
%TD*%
D17*
%TO.C,REF\u002A\u002A*%
X100330000Y-116600000D03*
X100330000Y-134600000D03*
%TD*%
D21*
%TO.C,U14*%
X141870000Y-68792500D03*
X141870000Y-64792500D03*
X140070000Y-68792500D03*
X140070000Y-64792500D03*
%TD*%
%TO.C,U10*%
X111390000Y-56100000D03*
X111390000Y-52100000D03*
X109590000Y-56100000D03*
X109590000Y-52100000D03*
%TD*%
D22*
%TO.C,U9*%
X119750000Y-52100000D03*
X119750000Y-56100000D03*
X121550000Y-52100000D03*
X121550000Y-56100000D03*
%TD*%
D23*
%TO.C,JP1*%
X140300000Y-113550000D03*
D24*
X140299999Y-114849999D03*
D25*
X140300000Y-116150000D03*
%TD*%
D22*
%TO.C,U3*%
X180710000Y-52100000D03*
X180710000Y-56100000D03*
X182510000Y-52100000D03*
X182510000Y-56100000D03*
%TD*%
D21*
%TO.C,U8*%
X131710000Y-56100000D03*
X131710000Y-52100000D03*
X129910000Y-56100000D03*
X129910000Y-52100000D03*
%TD*%
D22*
%TO.C,U6*%
X140070000Y-52100000D03*
X140070000Y-56100000D03*
X141870000Y-52100000D03*
X141870000Y-56100000D03*
%TD*%
D21*
%TO.C,U7*%
X172350000Y-56100000D03*
X172350000Y-52100000D03*
X170550000Y-56100000D03*
X170550000Y-52100000D03*
%TD*%
D26*
%TO.C,C17*%
X110100000Y-106850000D03*
X112000000Y-106850000D03*
%TD*%
D21*
%TO.C,U5*%
X152030000Y-56100000D03*
X152030000Y-52100000D03*
X150230000Y-56100000D03*
X150230000Y-52100000D03*
%TD*%
D22*
%TO.C,U12*%
X150230000Y-64792500D03*
X150230000Y-68792500D03*
X152030000Y-64792500D03*
X152030000Y-68792500D03*
%TD*%
D27*
%TO.C,SW1*%
X167649999Y-103919999D03*
X167649999Y-106129999D03*
D28*
X169800000Y-105020000D03*
X172800000Y-105020000D03*
D27*
X174949999Y-103919999D03*
X174949999Y-106129999D03*
D29*
X169049999Y-106779999D03*
X172049999Y-106779999D03*
X173549999Y-106779999D03*
%TD*%
D22*
%TO.C,U4*%
X160390000Y-52100000D03*
X160390000Y-56100000D03*
X162190000Y-52100000D03*
X162190000Y-56100000D03*
%TD*%
M02*
