%TF.GenerationSoftware,KiCad,Pcbnew,(7.0.0)*%
%TF.CreationDate,2023-09-26T23:36:23+07:00*%
%TF.ProjectId,Line Tracer F405RGT,4c696e65-2054-4726-9163-657220463430,rev?*%
%TF.SameCoordinates,Original*%
%TF.FileFunction,Profile,NP*%
%FSLAX46Y46*%
G04 Gerber Fmt 4.6, Leading zero omitted, Abs format (unit mm)*
G04 Created by KiCad (PCBNEW (7.0.0)) date 2023-09-26 23:36:23*
%MOMM*%
%LPD*%
G01*
G04 APERTURE LIST*
%TA.AperFunction,Profile*%
%ADD10C,0.100000*%
%TD*%
G04 APERTURE END LIST*
D10*
X104550000Y-145100000D02*
X187550000Y-145100000D01*
X186050000Y-60600000D02*
X183550000Y-63100000D01*
X165050000Y-63100000D02*
X157050000Y-71100000D01*
X183550000Y-45100000D02*
X108550000Y-45100000D01*
X127050000Y-103100000D02*
X104550000Y-103100000D01*
X196050000Y-111600000D02*
X187550000Y-103100000D01*
X157050000Y-71100000D02*
X157050000Y-95100000D01*
X106050000Y-47600000D02*
X108550000Y-45100000D01*
X104550000Y-103100000D02*
X96050000Y-111600000D01*
X108550000Y-63100000D02*
X106050000Y-60600000D01*
X135050000Y-95100000D02*
X135050000Y-71100000D01*
X187550000Y-103100000D02*
X165050000Y-103100000D01*
X157050000Y-95100000D02*
X165050000Y-103100000D01*
X183550000Y-45100000D02*
X186050000Y-47600000D01*
X187550000Y-145100000D02*
X196050000Y-136600000D01*
X186050000Y-47600000D02*
X186050000Y-60600000D01*
X127050000Y-103100000D02*
X135050000Y-95100000D01*
X96050000Y-136600000D02*
X104550000Y-145100000D01*
X96050000Y-111600000D02*
X96050000Y-136600000D01*
X106050000Y-60600000D02*
X106050000Y-47600000D01*
X196050000Y-136600000D02*
X196050000Y-111600000D01*
X127050000Y-63100000D02*
X108550000Y-63100000D01*
X183550000Y-63100000D02*
X165050000Y-63100000D01*
X135050000Y-71100000D02*
X127050000Y-63100000D01*
M02*
